<svg width="30" height="30" viewBox="0 0 30 30" fill="none" xmlns="http://www.w3.org/2000/svg">
<path fill-rule="evenodd" clip-rule="evenodd" d="M15 8.26873C17.6006 5.59685 24.1012 10.275 15 16.2881C5.89875 10.275 12.3994 5.59873 15 8.27248V8.26873Z" fill="#CA2020"/>
<path d="M3.75 3.75C3.75 2.75544 4.14509 1.80161 4.84835 1.09835C5.55161 0.395088 6.50544 0 7.5 0L22.5 0C23.4946 0 24.4484 0.395088 25.1516 1.09835C25.8549 1.80161 26.25 2.75544 26.25 3.75V29.0625C26.2499 29.2321 26.2038 29.3985 26.1167 29.5439C26.0295 29.6894 25.9045 29.8085 25.755 29.8885C25.6055 29.9686 25.4371 30.0065 25.2677 29.9984C25.0983 29.9903 24.9343 29.9364 24.7931 29.8425L15 24.5644L5.20687 29.8425C5.0657 29.9364 4.90168 29.9903 4.7323 29.9984C4.56291 30.0065 4.3945 29.9686 4.245 29.8885C4.0955 29.8085 3.97051 29.6894 3.88334 29.5439C3.79617 29.3985 3.75009 29.2321 3.75 29.0625V3.75ZM7.5 1.875C7.00272 1.875 6.52581 2.07254 6.17417 2.42417C5.82254 2.77581 5.625 3.25272 5.625 3.75V27.3112L14.4806 22.6575C14.6345 22.5551 14.8152 22.5005 15 22.5005C15.1848 22.5005 15.3655 22.5551 15.5194 22.6575L24.375 27.3112V3.75C24.375 3.25272 24.1775 2.77581 23.8258 2.42417C23.4742 2.07254 22.9973 1.875 22.5 1.875H7.5Z" fill="#CA2020"/>
</svg>
